<?xml version="1.0" standalone="no"?>
<!DOCTYPE svg PUBLIC "-//W3C//DTD SVG 20010904//EN"
 "http://www.w3.org/TR/2001/REC-SVG-20010904/DTD/svg10.dtd">
<svg version="1.0" xmlns="http://www.w3.org/2000/svg"
 width="682.000000pt" height="682.000000pt" viewBox="0 0 682.000000 682.000000"
 preserveAspectRatio="xMidYMid meet">
<metadata>
Created by potrace 1.11, written by Peter Selinger 2001-2013
</metadata>
<g transform="translate(0.000000,682.000000) scale(0.100000,-0.100000)"
fill="#000000" stroke="none">
<path d="M6158 4609 c-229 -22 -523 -132 -725 -271 -119 -82 -243 -209 -284
-293 -30 -62 -34 -79 -34 -150 0 -67 4 -86 24 -118 37 -60 89 -82 197 -82 84
0 95 3 166 38 77 38 138 93 138 125 0 10 -6 27 -14 37 -13 18 -15 18 -65 -4
-69 -29 -127 -26 -153 10 -27 37 -26 124 2 180 92 180 468 359 790 376 103 5
121 3 162 -14 25 -12 58 -37 74 -59 26 -33 29 -45 29 -108 -1 -86 -23 -133
-99 -214 -92 -98 -159 -140 -555 -349 -296 -157 -378 -206 -484 -290 -173
-138 -256 -310 -217 -448 39 -138 240 -240 435 -220 146 15 318 84 405 162 55
49 65 75 41 104 l-16 20 -59 -30 c-64 -34 -91 -38 -139 -17 -48 20 -69 50 -75
106 -8 87 40 140 388 420 286 231 382 318 461 418 149 187 183 333 112 478
-74 151 -250 218 -505 193z"/>
<path d="M3955 4579 c-401 -54 -857 -289 -1199 -618 -256 -247 -443 -544 -502
-798 -8 -35 -19 -108 -24 -163 -5 -55 -14 -110 -20 -121 -22 -40 -176 -151
-285 -204 -143 -70 -237 -94 -396 -102 -270 -13 -482 56 -635 205 -120 117
-173 240 -181 412 -23 503 464 1085 1003 1196 87 18 187 13 234 -11 61 -32 61
-125 0 -224 -17 -26 -30 -51 -30 -54 0 -12 152 -107 185 -116 54 -15 101 4
160 63 156 156 115 389 -86 480 -76 35 -142 46 -279 46 -318 0 -733 -156
-1055 -395 -380 -283 -634 -646 -701 -1002 -20 -111 -15 -348 10 -437 82 -292
264 -482 557 -581 172 -59 457 -70 664 -26 326 69 641 255 826 487 l53 67 16
-49 c62 -181 183 -319 355 -403 197 -97 529 -128 775 -72 527 120 1002 536
1134 992 31 108 39 201 28 309 -8 84 -8 85 17 105 53 40 133 121 146 145 16
31 2 72 -37 108 l-25 22 -74 -61 c-41 -33 -79 -63 -86 -66 -7 -3 -27 12 -45
32 -84 96 -216 133 -410 115 -282 -27 -580 -127 -695 -232 -56 -53 -73 -85
-73 -143 0 -83 57 -158 157 -205 50 -23 193 -50 269 -50 147 0 365 54 533 131
46 22 86 37 88 35 10 -10 -30 -156 -62 -221 -140 -291 -515 -514 -866 -515
-286 0 -470 139 -525 400 -22 103 -14 305 16 410 126 441 562 833 1035 931
100 21 263 14 344 -14 109 -38 199 -94 274 -170 l69 -70 40 39 c53 52 71 90
70 146 -2 113 -101 194 -282 233 -90 20 -382 28 -485 14z m250 -900 c45 -13
113 -75 98 -90 -18 -18 -186 -81 -281 -105 -180 -44 -374 -26 -396 38 -8 23
-6 32 13 52 37 39 170 81 351 109 54 9 177 6 215 -4z"/>
<path d="M5203 2565 c-117 -26 -244 -117 -301 -214 -32 -54 -35 -136 -9 -188
34 -64 130 -113 222 -113 109 0 315 83 400 161 120 111 87 279 -68 344 -52 21
-172 27 -244 10z"/>
</g>
</svg>
